<?xml version="1.0" encoding="UTF-8" standalone="no"?>
<!DOCTYPE svg PUBLIC "-//W3C//DTD SVG 1.1//EN" "http://www.w3.org/Graphics/SVG/1.1/DTD/svg11.dtd">
<svg width="100%" height="100%" viewBox="0 0 800 800" version="1.1" xmlns="http://www.w3.org/2000/svg" xmlns:xlink="http://www.w3.org/1999/xlink" xml:space="preserve" xmlns:serif="http://www.serif.com/" style="fill-rule:evenodd;clip-rule:evenodd;stroke-linejoin:round;stroke-miterlimit:2;">
    <path d="M306.41,140.039C397.344,140.039 471.401,214.049 471.401,305.029L471.401,352.17C471.401,402.986 447.831,447.911 411.58,478.222C450.801,484.02 489.644,492.788 527.545,505.139C578.55,521.732 612.821,570.004 612.821,625.205L612.821,708.69L601.649,715.619C539.801,754.086 438.308,800 306.41,800C233.579,800 123.177,785.34 11.125,715.62L0,708.69L0,629.778C0,571.182 37.193,520.177 92.489,502.782C128.08,491.657 164.378,483.407 200.958,477.986C164.896,447.675 141.42,402.845 141.42,352.17L141.42,305.029C141.42,214.049 215.43,140.039 306.41,140.039ZM493.085,0C584.019,0 658.075,74.01 658.075,164.99L658.075,212.13C658.075,262.947 634.505,307.919 598.255,338.183C637.475,343.981 676.272,352.796 714.22,365.1C765.225,381.788 799.496,430.012 799.496,485.213L799.496,568.698L788.371,575.628C756.032,595.757 712.617,617.723 659.961,634.27L659.961,625.219C659.961,549.512 612.633,483.233 542.158,460.323C526.82,455.323 511.318,450.842 495.678,446.888C510.574,417.803 518.541,385.465 518.541,352.184L518.541,305.043C518.541,200.675 442.693,114.22 343.368,96.637C369.484,39.786 426.523,0 493.085,0L493.085,0Z" style="fill:rgb(242,242,242);"/>
</svg>
