<?xml version="1.0" encoding="UTF-8" standalone="no"?>
<!DOCTYPE svg PUBLIC "-//W3C//DTD SVG 1.1//EN" "http://www.w3.org/Graphics/SVG/1.1/DTD/svg11.dtd">
<svg width="100%" height="100%" viewBox="0 0 800 800" version="1.1" xmlns="http://www.w3.org/2000/svg" xmlns:xlink="http://www.w3.org/1999/xlink" xml:space="preserve" xmlns:serif="http://www.serif.com/" style="fill-rule:evenodd;clip-rule:evenodd;stroke-linecap:round;stroke-linejoin:round;">
    <path d="M400,266.667L400,400L483.333,483.333" style="fill:none;fill-rule:nonzero;stroke:white;stroke-width:50px;"/>
    <path d="M186.808,186.808L169.13,169.13L186.808,186.808ZM144.595,229.02L119.595,229.146C119.664,242.855 130.76,253.951 144.469,254.02L144.595,229.02ZM229.321,254.446C243.128,254.516 254.377,243.379 254.446,229.572C254.516,215.765 243.379,204.516 229.572,204.447L229.321,254.446ZM169.168,144.043C169.099,130.236 157.85,119.099 144.043,119.169C130.236,119.238 119.099,130.487 119.169,144.294L169.168,144.043ZM125,400C125,386.193 113.807,375 100,375C86.193,375 75,386.193 75,400L125,400ZM562.517,681.507C574.47,674.593 578.553,659.3 571.64,647.347C564.727,635.397 549.433,631.31 537.483,638.227L562.517,681.507ZM638.227,537.483C631.31,549.433 635.397,564.727 647.347,571.64C659.3,578.553 674.593,574.47 681.507,562.517L638.227,537.483ZM171.344,169.042C161.533,178.756 161.454,194.585 171.168,204.397C180.883,214.209 196.711,214.287 206.523,204.573L171.344,169.042ZM628.743,171.262C501.403,43.922 295.627,42.633 169.13,169.13L204.485,204.485C311.122,97.848 485.24,98.468 593.39,206.617L628.743,171.262ZM169.13,169.13L126.917,211.343L162.273,246.698L204.485,204.485L169.13,169.13ZM144.469,254.02L229.321,254.446L229.572,204.447L144.721,204.021L144.469,254.02ZM169.595,228.895L169.168,144.043L119.169,144.294L119.595,229.146L169.595,228.895ZM400,125C551.877,125 675,248.122 675,400L725,400C725,220.507 579.493,75 400,75L400,125ZM400,675C248.122,675 125,551.877 125,400L75,400C75,579.493 220.507,725 400,725L400,675ZM537.483,638.227C497.06,661.61 450.13,675 400,675L400,725C459.157,725 514.69,709.173 562.517,681.507L537.483,638.227ZM675,400C675,450.13 661.61,497.06 638.227,537.483L681.507,562.517C709.173,514.69 725,459.157 725,400L675,400ZM206.523,204.573C256.236,155.353 324.549,125 400,125L400,75C310.847,75 230.038,110.93 171.344,169.042L206.523,204.573Z" style="fill:white;fill-rule:nonzero;stroke:white;stroke-width:1px;stroke-linecap:butt;stroke-miterlimit:2;"/>
</svg>
