<?xml version="1.0" encoding="UTF-8" standalone="no"?>
<!DOCTYPE svg PUBLIC "-//W3C//DTD SVG 1.1//EN" "http://www.w3.org/Graphics/SVG/1.1/DTD/svg11.dtd">
<svg width="100%" height="100%" viewBox="0 0 800 800" version="1.1" xmlns="http://www.w3.org/2000/svg" xmlns:xlink="http://www.w3.org/1999/xlink" xml:space="preserve" xmlns:serif="http://www.serif.com/" style="fill-rule:evenodd;clip-rule:evenodd;stroke-linejoin:round;stroke-miterlimit:2;">
    <path d="M519.667,413.333L519.667,549C519.667,561 518.333,572.333 515.333,582.667C503,631.667 462.333,662.333 406.333,662.333L315.667,662.333L215,729.333C200,739.667 180,728.667 180,710.667L180,662.333C146,662.333 117.667,651 98,631.333C78,611.333 66.667,583 66.667,549L66.667,413.333C66.667,350 106,306.333 166.667,300.667C171,300.333 175.333,300 180,300L406.333,300C474.333,300 519.667,345.333 519.667,413.333Z" style="fill:white;fill-rule:nonzero;"/>
    <path d="M591.667,520C634,520 669.667,506 694.333,481C719.333,456.333 733.333,420.667 733.333,378.333L733.333,208.333C733.333,130 670,66.667 591.667,66.667L308.333,66.667C230,66.667 166.667,130 166.667,208.333L166.667,233.333C166.667,242.667 174,250 183.333,250L406.333,250C496.667,250 569.667,323 569.667,413.333L569.667,503.333C569.667,512.667 577,520 586.333,520L591.667,520Z" style="fill:white;fill-rule:nonzero;"/>
</svg>
