<?xml version="1.0" encoding="UTF-8" standalone="no"?>
<!DOCTYPE svg PUBLIC "-//W3C//DTD SVG 1.1//EN" "http://www.w3.org/Graphics/SVG/1.1/DTD/svg11.dtd">
<svg width="100%" height="100%" viewBox="0 0 800 800" version="1.1" xmlns="http://www.w3.org/2000/svg" xmlns:xlink="http://www.w3.org/1999/xlink" xml:space="preserve" xmlns:serif="http://www.serif.com/" style="fill-rule:evenodd;clip-rule:evenodd;stroke-linejoin:round;stroke-miterlimit:2;">
    <g id="icons" transform="matrix(1,0,0,1,-11360,-78360)">
        <g id="Page-1">
            <g id="Dribbble-Light-Preview">
                <g id="icons1" serif:id="icons">
                    <path id="profile_image_zoom---1347-" serif:id="profile_image_zoom-[#1347]" d="M12080,78904.7C12040,78847.8 11982.4,78804.6 11914.4,78779.1C11969,78735.1 12006.1,78671.7 12006.1,78596.1C12006.1,78534.5 11984.8,78480 11946.7,78440L12080,78440L12080,78904.7ZM11456.8,79080C11489.8,78920 11616.8,78840 11768.2,78840C11919.6,78840 12046.4,78920 12079.5,79080L11456.8,79080ZM11440,78904.7L11440,78440L11589.6,78440C11551.5,78480 11528.2,78534.5 11528.2,78596.1C11528.2,78671.7 11559.1,78737 11613.8,78781C11545.8,78806.6 11480,78847.8 11440,78904.7ZM11768.2,78432.2C11856.4,78432.2 11928.2,78503.9 11928.2,78592.2C11928.2,78680.4 11856.4,78752.2 11768.2,78752.2C11679.9,78752.2 11608.2,78680.4 11608.2,78592.2C11608.2,78503.9 11679.9,78432.2 11768.2,78432.2ZM11360,79160L12160,79160L12160,78360L11360,78360L11360,79160Z" style="fill:white;"/>
                </g>
            </g>
        </g>
    </g>
</svg>
