<?xml version="1.0" encoding="UTF-8" standalone="no"?>
<!DOCTYPE svg PUBLIC "-//W3C//DTD SVG 1.1//EN" "http://www.w3.org/Graphics/SVG/1.1/DTD/svg11.dtd">
<svg width="100%" height="100%" viewBox="0 0 800 800" version="1.1" xmlns="http://www.w3.org/2000/svg" xmlns:xlink="http://www.w3.org/1999/xlink" xml:space="preserve" xmlns:serif="http://www.serif.com/" style="fill-rule:evenodd;clip-rule:evenodd;stroke-linejoin:round;stroke-miterlimit:2;">
    <path d="M460.1,177.778C460.1,116.413 510.073,66.667 571.717,66.667C633.36,66.667 683.333,116.413 683.333,177.778C683.333,239.143 633.36,288.889 571.717,288.889C540.59,288.889 512.46,276.199 492.237,255.782L337.723,360.983C339.15,368.083 339.9,375.417 339.9,382.907C339.9,397.74 336.967,411.92 331.653,424.88L501.077,536.193C520.307,520.537 544.91,511.11 571.717,511.11C633.36,511.11 683.333,560.857 683.333,622.223C683.333,683.587 633.36,733.333 571.717,733.333C510.073,733.333 460.1,683.587 460.1,622.223C460.1,606.15 463.54,590.85 469.723,577.037L301.669,466.623C282.065,483.66 256.387,494.017 228.283,494.017C166.639,494.017 116.667,444.27 116.667,382.907C116.667,321.541 166.639,271.795 228.283,271.795C263.73,271.795 295.284,288.242 315.715,313.839L465.463,211.881C461.98,201.12 460.1,189.653 460.1,177.778Z" style="fill:rgb(77,77,77);"/>
</svg>
