<?xml version="1.0" encoding="UTF-8" standalone="no"?>
<!DOCTYPE svg PUBLIC "-//W3C//DTD SVG 1.1//EN" "http://www.w3.org/Graphics/SVG/1.1/DTD/svg11.dtd">
<svg width="100%" height="100%" viewBox="0 0 800 800" version="1.1" xmlns="http://www.w3.org/2000/svg" xmlns:xlink="http://www.w3.org/1999/xlink" xml:space="preserve" xmlns:serif="http://www.serif.com/" style="fill-rule:evenodd;clip-rule:evenodd;stroke-linejoin:round;stroke-miterlimit:2;">
    <rect x="0" y="0" width="800" height="800" style="fill:none;"/>
    <path d="M400,66.667C253.711,66.667 133.333,187.044 133.333,333.333L133.333,396.667C113.017,414.369 100.937,439.736 100,466.667C101.551,506.141 127.315,540.803 164.667,553.667C208,657.333 295,733.333 400,733.333L500,733.333L500,666.667L400,666.667C324.667,666.667 256.333,610 222,520.333L215,502L195.333,500C178.843,497.669 166.503,483.32 166.667,466.667C166.738,454.844 173.094,443.911 183.333,438L200,428.333L200,366.667C200,348.381 215.047,333.333 233.333,333.333L566.667,333.333C584.953,333.333 600,348.381 600,366.667L600,533.333L463.667,533.333C456.583,513.47 437.66,500.128 416.572,500.128C389.142,500.128 366.572,522.699 366.572,550.128C366.572,576.212 386.983,598.137 413,600L666.667,600C703.239,600 733.333,569.906 733.333,533.333L733.333,466.667C733.333,430.094 703.239,400 666.667,400L666.667,333.333C666.667,187.044 546.289,66.667 400,66.667Z" style="fill:white;fill-rule:nonzero;"/>
</svg>
